<svg xmlns="http://www.w3.org/2000/svg" width="800" height="200" viewBox="0 0 800 200">
  <style>
    text { font-family: ui-monospace, "JetBrains Mono", "SF Mono", Menlo, Consolas, monospace; font-size: 13px; dominant-baseline: middle; }
    @keyframes cl0 { 0%,0% { opacity: 0 } 3%,88% { opacity: 1 } 95%,100% { opacity: 0 } }
    @keyframes cl1 { 0%,6% { opacity: 0 } 9%,88% { opacity: 1 } 95%,100% { opacity: 0 } }
    @keyframes cl2 { 0%,12% { opacity: 0 } 15%,88% { opacity: 1 } 95%,100% { opacity: 0 } }
    @keyframes cl3 { 0%,18% { opacity: 0 } 21%,88% { opacity: 1 } 95%,100% { opacity: 0 } }
    @keyframes cl4 { 0%,24% { opacity: 0 } 27%,88% { opacity: 1 } 95%,100% { opacity: 0 } }
    @keyframes blink { 0%,49% { opacity: 1 } 50%,100% { opacity: 0 } }
    .cl0 { animation: cl0 12s ease-in-out infinite }
    .cl1 { animation: cl1 12s ease-in-out infinite }
    .cl2 { animation: cl2 12s ease-in-out infinite }
    .cl3 { animation: cl3 12s ease-in-out infinite }
    .cl4 { animation: cl4 12s ease-in-out infinite }
  </style>
  <rect width="100%" height="100%" fill="#1e1e1e" rx="14" ry="14"/>

  <!-- Panel header -->
  <rect x="0" y="0" width="800" height="32" fill="#272727" rx="14" ry="14"/>
  <rect x="0" y="18" width="800" height="14" fill="#272727"/>
  <line x1="0" y1="32" x2="800" y2="32" stroke="#353535" stroke-width="1"/>
  <g transform="translate(24 16)">
      <text x="0" y="0" fill="#6a737d" font-family="ui-monospace, monospace" font-size="10" letter-spacing="1.2" dominant-baseline="middle">PROBLEMS</text>
      
    </g>
  <g transform="translate(104 16)">
      <text x="0" y="0" fill="#d4d4d4" font-family="ui-monospace, monospace" font-size="10" letter-spacing="1.2" dominant-baseline="middle">OUTPUT</text>
      <rect x="-4" y="15" width="53" height="2" fill="#569cd6"/>
    </g>
  <g transform="translate(171 16)">
      <text x="0" y="0" fill="#6a737d" font-family="ui-monospace, monospace" font-size="10" letter-spacing="1.2" dominant-baseline="middle">DEBUG</text>
      
    </g>
  <g transform="translate(231.5 16)">
      <text x="0" y="0" fill="#6a737d" font-family="ui-monospace, monospace" font-size="10" letter-spacing="1.2" dominant-baseline="middle">TERMINAL</text>
      
    </g>

  <!-- Output body -->
  <g class="cl0" transform="translate(24 61)"><text x="0" fill="#569cd6">$</text><text x="15.6" fill="#d4d4d4">Mukonazwothe Mudau --connect</text></g>
  <g class="cl1" transform="translate(24 82)"><text x="0" fill="#4ade80">✓</text><text x="15.6" fill="#6a737d">Build successful (3 links found)</text></g>
  <g class="cl2" transform="translate(24 103)"><g transform="translate(23.4 -6)"><svg viewBox="0 0 24 24" width="12" height="12" fill="none" stroke="#6a737d" stroke-width="2" stroke-linecap="round" stroke-linejoin="round"><path d="M15 22v-4a4.8 4.8 0 0 0-1-3.5c3 0 6-2 6-5.5.08-1.25-.27-2.48-1-3.5.28-1.15.28-2.35 0-3.5 0 0-1 0-3 1.5-2.64-.5-5.36-.5-8 0C6 2 5 2 5 2c-.3 1.15-.3 2.35 0 3.5A5.403 5.403 0 0 0 4 9c0 3.5 3 5.5 6 5.5-.39.49-.68 1.05-.85 1.65-.17.6-.22 1.23-.15 1.85v4"/><path d="M9 18c-4.51 2-5-2-7-2"/></svg></g><text x="41.4" fill="#d4d4d4">→</text><text x="57" fill="#d4d4d4">github.com/mukona90</text></g>
  <g class="cl3" transform="translate(24 124)"><g transform="translate(23.4 -6)"><svg viewBox="0 0 24 24" width="12" height="12" fill="none" stroke="#6a737d" stroke-width="2" stroke-linecap="round" stroke-linejoin="round"><path d="M4 4h16a2 2 0 0 1 2 2v12a2 2 0 0 1-2 2H4a2 2 0 0 1-2-2V6a2 2 0 0 1 2-2z"/><path d="m22 7-8.97 5.7a1.94 1.94 0 0 1-2.06 0L2 7"/></svg></g><text x="41.4" fill="#d4d4d4">→</text><text x="57" fill="#d4d4d4">mukonazwothemudau90@gmail.com</text></g>
  <g class="cl4" transform="translate(24 145)"><g transform="translate(23.4 -6)"><svg viewBox="0 0 24 24" width="12" height="12" fill="none" stroke="#6a737d" stroke-width="2" stroke-linecap="round" stroke-linejoin="round"><path d="M16 8a6 6 0 0 1 6 6v7h-4v-7a2 2 0 0 0-2-2 2 2 0 0 0-2 2v7h-4v-7a6 6 0 0 1 6-6z"/><path d="M2 9h4v12H2z"/><path d="M4 6a2 2 0 1 0 0-4 2 2 0 0 0 0 4z"/></svg></g><text x="41.4" fill="#d4d4d4">→</text><text x="57" fill="#d4d4d4">in/mukonazwothe-mudau-04085516b/</text></g>

  <!-- Blinking cursor -->
  <rect x="330.6" y="134" width="2" height="16" fill="#d4d4d4" style="animation: blink 1s steps(1) infinite"/>

  <!-- Status bar -->
  <rect x="0" y="172" width="800" height="28" fill="#569cd6"/>
  <rect x="0" y="172" width="800" height="28" fill="#569cd6" rx="14" ry="14"/>
  <rect x="0" y="172" width="800" height="14" fill="#569cd6"/>
  <g fill="#0a0a0b" font-family="ui-monospace, monospace" font-size="11">
    <text x="24" y="187" dominant-baseline="middle">⎇ main</text>
    <text x="88" y="187" dominant-baseline="middle" opacity="0.85">⊘ 0   ⚠ 0</text>
    <text x="776" y="187" dominant-baseline="middle" text-anchor="end">UTF-8 · LF · Markdown · ryme.md</text>
  </g>
</svg>